<svg width="280.48944" height="280.48944" version="1.1" viewBox="0 0 280.48944 280.48944" xmlns="http://www.w3.org/2000/svg" xmlns:xlink="http://www.w3.org/1999/xlink">
<style>
@media (prefers-color-scheme: dark) {
  svg { -webkit-filter:invert(0.90); filter:invert(0.90); }
}</style>
<title>Vaultwarden Logo</title>
<defs>
<mask id="d">
<rect x="-60" y="-60" width="120" height="120" fill="#fff"/>
<circle id="b" cy="-40" r="3"/>
<use transform="rotate(72)" xlink:href="#b"/>
<use transform="rotate(144)" xlink:href="#b"/>
<use transform="rotate(216)" xlink:href="#b"/>
<use transform="rotate(-72)" xlink:href="#b"/>
</mask>
</defs>
<g transform="translate(-10.708266,-9.2965379)">
<g id="e" transform="matrix(2.6712834,0,0,2.6712834,150.95027,149.53854)">
<g id="f" mask="url(#d)">
<path d="m-31.1718-33.813208 26.496029 74.188883h9.3515399l26.49603-74.188883h-9.767164l-16.728866 47.588948q-1.662496 4.571864-2.805462 8.624198-1.142966 3.948427-1.870308 7.585137-.72734199-3.63671-1.8703079-7.689043-1.142966-4.052334-2.805462-8.728104l-16.624959-47.381136z" stroke="#000" stroke-width="4.51171"/>
<circle transform="scale(-1,1)" r="43" fill="none" stroke="#000" stroke-width="9"/>
<g id="g" transform="scale(-1,1)">
<polygon id="a" points="46 -3 46 3 51 0" stroke="#000" stroke-linejoin="round" stroke-width="3"/>
<use transform="rotate(11.25)" xlink:href="#a"/>
<use transform="rotate(22.5)" xlink:href="#a"/>
<use transform="rotate(33.75)" xlink:href="#a"/>
<use transform="rotate(45)" xlink:href="#a"/>
<use transform="rotate(56.25)" xlink:href="#a"/>
<use transform="rotate(67.5)" xlink:href="#a"/>
<use transform="rotate(78.75)" xlink:href="#a"/>
<use transform="rotate(90)" xlink:href="#a"/>
<use transform="rotate(101.25)" xlink:href="#a"/>
<use transform="rotate(112.5)" xlink:href="#a"/>
<use transform="rotate(123.75)" xlink:href="#a"/>
<use transform="rotate(135)" xlink:href="#a"/>
<use transform="rotate(146.25)" xlink:href="#a"/>
<use transform="rotate(157.5)" xlink:href="#a"/>
<use transform="rotate(168.75)" xlink:href="#a"/>
<use transform="scale(-1)" xlink:href="#a"/>
<use transform="rotate(191.25)" xlink:href="#a"/>
<use transform="rotate(202.5)" xlink:href="#a"/>
<use transform="rotate(213.75)" xlink:href="#a"/>
<use transform="rotate(225)" xlink:href="#a"/>
<use transform="rotate(236.25)" xlink:href="#a"/>
<use transform="rotate(247.5)" xlink:href="#a"/>
<use transform="rotate(258.75)" xlink:href="#a"/>
<use transform="rotate(-90)" xlink:href="#a"/>
<use transform="rotate(-78.75)" xlink:href="#a"/>
<use transform="rotate(-67.5)" xlink:href="#a"/>
<use transform="rotate(-56.25)" xlink:href="#a"/>
<use transform="rotate(-45)" xlink:href="#a"/>
<use transform="rotate(-33.75)" xlink:href="#a"/>
<use transform="rotate(-22.5)" xlink:href="#a"/>
<use transform="rotate(-11.25)" xlink:href="#a"/>
</g>
<g id="h" transform="scale(-1,1)">
<polygon id="c" points="7 -42 -7 -42 0 -35" stroke="#000" stroke-linejoin="round" stroke-width="6"/>
<use transform="rotate(72)" xlink:href="#c"/>
<use transform="rotate(144)" xlink:href="#c"/>
<use transform="rotate(216)" xlink:href="#c"/>
<use transform="rotate(-72)" xlink:href="#c"/>
</g>
</g>
<mask>
<rect x="-60" y="-60" width="120" height="120" fill="#fff"/>
<circle cy="-40" r="3"/>
<use transform="rotate(72)" xlink:href="#b"/>
<use transform="rotate(144)" xlink:href="#b"/>
<use transform="rotate(216)" xlink:href="#b"/>
<use transform="rotate(-72)" xlink:href="#b"/>
</mask>
</g>
</g>
</svg>
